<?xml version="1.0" encoding="utf-8"?>
<!-- Generator: Adobe Illustrator 20.1.0, SVG Export Plug-In . SVG Version: 6.00 Build 0)  -->
<svg version="1.1" id="Logo_Kraft" xmlns="http://www.w3.org/2000/svg" xmlns:xlink="http://www.w3.org/1999/xlink" x="0px" y="0px"
	 viewBox="0 0 170.1 159.1" style="enable-background:new 0 0 170.1 159.1;" xml:space="preserve">
<style type="text/css">
	.st0{fill:#CAA870;}
	.st1{fill:#DF0020;}
</style>
<g>
	<g>
		<g>
			<g>
				<polygon class="st0" points="169.8,0 169.8,146.2 0,146.2 0,-0.2 				"/>
			</g>
		</g>
	</g>
	<g>
		<path d="M70.1,159.1h-7.4l-9.1-32.9H19.5l-9.2,32.9H3.1L36.5,46.4L70.1,159.1z M20.9,120.1h31.4L36.5,65.6L20.9,120.1z"/>
		<path d="M73.2,50.7H97c16.9,0,26.6,12.2,26.6,29.8c0,13.7-7.1,25.9-19.4,30.1l27,48.4h-8.2l-25-46.8H79.7v46.8h-6.6V50.7z
			 M79.7,106.3h16.3c8.9,0,20.6-7.4,20.6-26.3c0-12.6-5.6-23.2-19.7-23.2H79.7V106.3z"/>
		<path d="M169,56.8h-29v102.3h-6.6V56.8H87.6v-6H169V56.8z"/>
	</g>
	<g>
		<polygon points="63.1,35.6 78.1,35.6 81.5,42.4 88.5,42.4 72.1,8.2 67.3,8.2 50.8,42.4 57.8,42.4 69.7,18.5 75.4,29.7 66.1,29.7 
					"/>
		<g>
			<polygon points="139.8,22.8 137.8,18.6 125.9,42.5 118.9,42.5 135.4,8.3 140.2,8.3 148.5,25.7 			"/>
			<polygon points="151.9,32.9 156.6,42.5 149.6,42.5 145.8,34.9 			"/>
			<polygon class="st1" points="137.7,36.4 157.7,29.9 137.8,23.3 			"/>
		</g>
		<path d="M89.3,29.7c0,7.4,6.9,13.5,14.3,13.5c7.4,0,14.1-6,14.1-13.4l0-21.7l-7.2,0l0,21.7c0,5.1-3.4,7.4-7,7.4
			c-3.5,0-7.2-2.3-7.2-7.5L89.3,29.7z"/>
		<g>
			<polygon points="18.7,8.1 11.4,8.1 11.4,42.3 18.6,42.3 			"/>
			<path d="M20.7,13.8l9.9,0c2.8,0,5.1,2.3,5.1,5.2c0,2.8-2.3,5.1-5.1,5.1l-9.9,0l17,18.2l9.6,0L34.7,27.7C39.4,27,43,23,43,18
				c0-5.4-4.4-9.9-9.8-9.9l-12.5,0L20.7,13.8z"/>
		</g>
	</g>
	<line x1="169.7" y1="0" x2="0" y2="0"/>
</g>
</svg>
