<?xml version="1.0" encoding="utf-8"?>
<!-- Generator: Adobe Illustrator 20.1.0, SVG Export Plug-In . SVG Version: 6.00 Build 0)  -->
<svg version="1.1" id="Logo_Kraft" xmlns="http://www.w3.org/2000/svg" xmlns:xlink="http://www.w3.org/1999/xlink" x="0px" y="0px"
	 viewBox="0 0 146 156.6" style="enable-background:new 0 0 146 156.6;" xml:space="preserve">
<style type="text/css">
	.st0{fill:#CAA870;}
	.st1{fill:#DF0020;}
	.st2{fill:#FFFFFF;}
</style>
<g>
	<g>
		<g>
			<g>
				<polygon class="st0" points="146,19.9 146,145.5 0,145.5 0,19.7 				"/>
			</g>
		</g>
	</g>
	<g>
		<path d="M60.3,156.6h-6.4l-7.8-28.3H16.8l-7.9,28.3H2.6l28.8-96.9L60.3,156.6z M18,123.1h27L31.4,76.3L18,123.1z"/>
		<path d="M62.9,63.5h20.5c14.5,0,22.9,10.5,22.9,25.6c0,11.8-6.1,22.2-16.7,25.9l23.2,41.6h-7.1l-21.5-40.2H68.5v40.2h-5.6V63.5z
			 M68.5,111.2h14c7.7,0,17.7-6.3,17.7-22.6c0-10.9-4.8-19.9-16.9-19.9H68.5V111.2z"/>
		<path d="M145.2,68.7h-24.9v87.9h-5.6V68.7H75.3v-5.2h70V68.7z"/>
	</g>
	<g>
		<polygon points="54.2,50.5 67.2,50.5 70.1,56.3 76,56.3 62,26.9 57.8,26.9 43.7,56.3 49.6,56.3 59.9,35.8 64.8,45.4 56.8,45.4 		
			"/>
		<g>
			<polygon points="120.2,39.5 118.4,35.9 108.2,56.4 102.2,56.4 116.4,27 120.5,27 127.6,41.9 			"/>
			<polygon points="130.6,48.1 134.6,56.4 128.6,56.4 125.3,49.8 			"/>
			<polygon class="st1" points="118.4,51.2 135.5,45.6 118.4,39.9 			"/>
		</g>
		<path d="M76.8,45.4c0,6.4,5.9,11.6,12.3,11.6c6.4,0,12.1-5.2,12.2-11.6l0-18.6l-6.2,0l0,18.6c0,4.4-3,6.4-6,6.4
			c-3,0-6.2-2-6.2-6.4L76.8,45.4z"/>
		<g>
			<rect x="-1.8" y="38.4" transform="matrix(1.412950e-03 -1 1 1.412950e-03 -28.6151 54.3718)" width="29.4" height="6.2"/>
			<path d="M17.8,31.7l8.5,0c2.4,0,4.4,2,4.4,4.4c0,2.4-2,4.4-4.4,4.4l-8.5,0l14.6,15.7l8.2,0L29.8,43.7c4.1-0.6,7.2-4.1,7.2-8.3
				c0-4.7-3.8-8.5-8.4-8.6l-10.7,0L17.8,31.7z"/>
		</g>
	</g>
	<polygon points="145.9,0 145.9,19.9 0,19.9 0,0 	"/>
	<g>
		<path class="st2" d="M7.3,13.8c-0.6,0-1,0-1.4,0C6,13.4,6,13,6,12.5V6.7c0-0.6,0-0.9-0.1-1.3h1.2C7.1,5.9,7,6.1,7,6.7V13h4.2
			c0.7,0,1,0,1.5-0.1v0.9c-0.4-0.1-0.8-0.1-1.5-0.1H7.3z"/>
		<path class="st2" d="M23.2,13.8c-0.1-0.4-0.3-0.8-0.4-1.1l-0.7-1.4h-4.6l-0.7,1.4c-0.2,0.4-0.3,0.7-0.4,1.1H15
			c0.3-0.4,0.4-0.5,0.7-1.3l3-6c0.3-0.5,0.4-0.8,0.4-1h1.3c0.1,0.2,0.1,0.3,0.4,1l3,6c0.3,0.7,0.5,1,0.7,1.3H23.2z M20.1,6.9
			c0-0.1,0-0.1-0.3-0.7c-0.1,0.2-0.1,0.3-0.1,0.4c-0.1,0.2-0.1,0.3-0.1,0.3l-1.7,3.6h4L20.1,6.9z"/>
		<path class="st2" d="M41.3,7.8c-0.2-0.5-0.3-0.7-0.6-1c-0.5-0.5-1.3-0.8-2.3-0.8c-2.1,0-3.5,1.4-3.5,3.5c0,2.2,1.4,3.5,3.5,3.5
			c1,0,1.9-0.3,2.5-0.9c0.3-0.3,0.4-0.6,0.5-1.1l1.1,0.2c-0.2,0.6-0.4,1-0.7,1.3c-0.7,0.8-1.9,1.3-3.4,1.3c-1.3,0-2.3-0.3-3.1-1
			c-0.9-0.8-1.4-2-1.4-3.3c0-1.4,0.5-2.6,1.5-3.4c0.8-0.6,1.8-0.9,3-0.9c1.2,0,2.2,0.3,3,0.9c0.5,0.4,0.7,0.7,1,1.4L41.3,7.8z"/>
		<path class="st2" d="M54.9,9.6c0,2.6-1.8,4.3-4.6,4.3c-2.8,0-4.6-1.7-4.6-4.3c0-2.6,1.8-4.3,4.6-4.3C53.1,5.3,54.9,7,54.9,9.6z
			 M52.6,12.4c0.8-0.6,1.2-1.6,1.2-2.8c0-1.2-0.4-2.2-1.2-2.8c-0.6-0.5-1.4-0.8-2.3-0.8c-2.1,0-3.5,1.4-3.5,3.5
			c0,2.1,1.4,3.6,3.5,3.6C51.3,13.2,52.1,12.9,52.6,12.4z"/>
		<path class="st2" d="M60,13.8c-0.6,0-1,0-1.4,0c0.1-0.4,0.1-0.8,0.1-1.3V6.7c0-0.6,0-0.9-0.1-1.3h1.2c-0.1,0.4-0.1,0.7-0.1,1.3V13
			h4.2c0.7,0,1,0,1.5-0.1v0.9c-0.4-0.1-0.8-0.1-1.5-0.1H60z"/>
		<path class="st2" d="M70,13.8c-0.6,0-1,0-1.4,0c0.1-0.4,0.1-0.8,0.1-1.3V6.7c0-0.6,0-0.9-0.1-1.3h1.2c-0.1,0.4-0.1,0.7-0.1,1.3V13
			h4.2c0.7,0,1,0,1.5-0.1v0.9c-0.4-0.1-0.8-0.1-1.5-0.1H70z"/>
		<path class="st2" d="M85.3,13.8c-0.4-0.1-0.8-0.1-1.5-0.1h-3.9c-0.6,0-1,0-1.5,0c0.1-0.4,0.1-0.7,0.1-1.3V6.7c0-0.5,0-0.8-0.1-1.2
			c0.5,0,0.8,0,1.5,0h3.8c0.6,0,1,0,1.5-0.1v0.9c-0.5-0.1-0.8-0.1-1.5-0.1h-4.1V9h3.5c0.6,0,1,0,1.5-0.1v0.9
			c-0.5-0.1-0.8-0.1-1.5-0.1h-3.5V13h4.2c0.6,0,1,0,1.5-0.1V13.8z"/>
		<path class="st2" d="M96.1,7.8c-0.2-0.5-0.3-0.7-0.6-1c-0.5-0.5-1.3-0.8-2.3-0.8c-2.1,0-3.5,1.4-3.5,3.5c0,2.2,1.4,3.5,3.5,3.5
			c1,0,1.9-0.3,2.5-0.9c0.3-0.3,0.4-0.6,0.5-1.1l1.1,0.2c-0.2,0.6-0.4,1-0.7,1.3c-0.7,0.8-1.9,1.3-3.4,1.3c-1.3,0-2.3-0.3-3.1-1
			c-0.9-0.8-1.4-2-1.4-3.3c0-1.4,0.5-2.6,1.5-3.4c0.8-0.6,1.8-0.9,3-0.9c1.2,0,2.2,0.3,3,0.9c0.5,0.4,0.7,0.7,1,1.4L96.1,7.8z"/>
		<path class="st2" d="M105.3,12.5c0,0.5,0,0.8,0.1,1.2h-1.2c0.1-0.3,0.1-0.7,0.1-1.2V6.2h-2.1c-0.7,0-1.1,0-1.5,0.1V5.4
			c0.5,0.1,0.8,0.1,1.5,0.1h5.2c0.8,0,1.1,0,1.6-0.1v0.9c-0.4-0.1-0.8-0.1-1.6-0.1h-2V12.5z"/>
		<path class="st2" d="M113.8,5.5c-0.1,0.4-0.1,0.8-0.1,1.2v5.9c0,0.5,0,0.9,0.1,1.2h-1.3c0.1-0.4,0.1-0.7,0.1-1.2V6.7
			c0-0.5,0-0.8-0.1-1.2H113.8z"/>
		<path class="st2" d="M127.2,9.6c0,2.6-1.8,4.3-4.6,4.3c-2.8,0-4.6-1.7-4.6-4.3c0-2.6,1.8-4.3,4.6-4.3C125.4,5.3,127.2,7,127.2,9.6
			z M125,12.4c0.8-0.6,1.2-1.6,1.2-2.8c0-1.2-0.4-2.2-1.2-2.8c-0.6-0.5-1.4-0.8-2.3-0.8c-2.1,0-3.5,1.4-3.5,3.5
			c0,2.1,1.4,3.6,3.5,3.6C123.6,13.2,124.4,12.9,125,12.4z"/>
		<path class="st2" d="M132.9,5.5c0.1,0.3,0.3,0.5,0.7,1l4.2,5.2c0.1,0.2,0.5,0.7,0.9,1.2c-0.1-0.9-0.1-1.4-0.1-1.5V6.7
			c0-0.5,0-0.9-0.1-1.3h1.2c-0.1,0.4-0.1,0.7-0.1,1.3v5.8c0,0.5,0,0.9,0.1,1.2h-1.4c-0.2-0.3-0.3-0.5-0.7-1l-4.2-5.3
			c-0.1-0.1-0.5-0.8-0.7-1.1c0.1,0.5,0.1,1.1,0.1,1.3v4.7c0,0.6,0,0.9,0.1,1.3h-1.2c0.1-0.4,0.1-0.7,0.1-1.3V6.7
			c0-0.5,0-0.8-0.1-1.2H132.9z"/>
	</g>
</g>
</svg>
